<?xml version="1.0" encoding="UTF-8"?>
<svg width="133px" height="35px" viewBox="0 0 133 35" version="1.1" xmlns="http://www.w3.org/2000/svg" xmlns:xlink="http://www.w3.org/1999/xlink">
    <!-- Generator: Sketch 52.6 (67491) - http://www.bohemiancoding.com/sketch -->
    <title>Group</title>
    <desc>Created with Sketch.</desc>
    <g id="Page-1" stroke="none" stroke-width="1" fill="none" fill-rule="evenodd">
        <g id="Group" fill-rule="nonzero" stroke="#4A4A4A" stroke-width="2">
            <path d="M33,34 L33,17.5939467 C31.9749364,12.2165103 30.2111458,8.21581825 27.7361478,5.57763399 C25.2982515,2.97899785 21.7350347,1.44840017 17,1.00424042 C12.2649653,1.44840017 8.70174847,2.97899785 6.26385225,5.57763399 C3.78885417,8.21581825 2.02506359,12.2165103 1,17.5939467 L1,34 L33,34 Z" id="Combined-Shape"></path>
            <path d="M50,34 L50,17.5939467 C48.9749364,12.2165103 47.2111458,8.21581825 44.7361478,5.57763399 C42.2982515,2.97899785 38.7350347,1.44840017 34,1.00424042 C29.2649653,1.44840017 25.7017485,2.97899785 23.2638522,5.57763399 C20.7888542,8.21581825 19.0250636,12.2165103 18,17.5939467 L18,34 L50,34 Z" id="Combined-Shape-Copy"></path>
            <path d="M67,34 L67,17.5939467 C65.9749364,12.2165103 64.2111458,8.21581825 61.7361478,5.57763399 C59.2982515,2.97899785 55.7350347,1.44840017 51,1.00424042 C46.2649653,1.44840017 42.7017485,2.97899785 40.2638522,5.57763399 C37.7888542,8.21581825 36.0250636,12.2165103 35,17.5939467 L35,34 L67,34 Z" id="Combined-Shape-Copy-2"></path>
            <path d="M82,34 L82,17.5939467 C80.9749364,12.2165103 79.2111458,8.21581825 76.7361478,5.57763399 C74.2982515,2.97899785 70.7350347,1.44840017 66,1.00424042 C61.2649653,1.44840017 57.7017485,2.97899785 55.2638522,5.57763399 C52.7888542,8.21581825 51.0250636,12.2165103 50,17.5939467 L50,34 L82,34 Z" id="Combined-Shape-Copy-3"></path>
            <path d="M99,34 L99,17.5939467 C97.9749364,12.2165103 96.2111458,8.21581825 93.7361478,5.57763399 C91.2982515,2.97899785 87.7350347,1.44840017 83,1.00424042 C78.2649653,1.44840017 74.7017485,2.97899785 72.2638522,5.57763399 C69.7888542,8.21581825 68.0250636,12.2165103 67,17.5939467 L67,34 L99,34 Z" id="Combined-Shape-Copy-4"></path>
            <path d="M114,34 L114,17.5939467 C112.974936,12.2165103 111.211146,8.21581825 108.736148,5.57763399 C106.298252,2.97899785 102.735035,1.44840017 98,1.00424042 C93.2649653,1.44840017 89.7017485,2.97899785 87.2638522,5.57763399 C84.7888542,8.21581825 83.0250636,12.2165103 82,17.5939467 L82,34 L114,34 Z" id="Combined-Shape-Copy-5"></path>
            <path d="M131.191838,34 L131.191838,17.5939467 C130.166774,12.2165103 128.402984,8.21581825 125.927986,5.57763399 C123.490089,2.97899785 119.926873,1.44840017 115.191838,1.00424042 C110.456803,1.44840017 106.893586,2.97899785 104.45569,5.57763399 C101.980692,8.21581825 100.216902,12.2165103 99.1918379,17.5939467 L99.1918379,34 L131.191838,34 Z" id="Combined-Shape-Copy-6"></path>
            <path d="M1,1.10691977 L1,34 L17.1918379,34 L17.1918379,17.6004419 C16.0960943,12.2327855 14.2117281,8.2397803 11.5635479,5.60192999 C9.11507596,3.163009 5.60453347,1.65821123 1,1.10691977 Z" id="Rectangle-Copy-2"></path>
            <path d="M116,1.11481897 L116,34 L131.191838,34 L131.191838,17.5949936 C130.155395,12.2191733 128.372197,8.21978213 125.869374,5.58170818 C123.576418,3.16484162 120.298746,1.67069233 116,1.11481897 Z" id="Rectangle-Copy-4" transform="translate(123.595919, 17.500000) scale(-1, 1) translate(-123.595919, -17.500000) "></path>
        </g>
    </g>
</svg>